<svg viewBox="0 0 202 202" fill="none" xmlns="http://www.w3.org/2000/svg">
<path d="M102.156 55.834L102.156 23.9888" stroke="#0C004B" stroke-width="8" stroke-linecap="round"/>
<mask id="mask0_1459_13747" style="mask-type:alpha" maskUnits="userSpaceOnUse" x="8" y="59" width="186" height="120">
<path fill-rule="evenodd" clip-rule="evenodd" d="M41.457 170.954L72.6799 131.672H129.32L160.543 170.954C164.086 175.413 169.471 178.011 175.166 178.011C187.153 178.011 196.038 166.882 193.383 155.194L179.293 93.1461C178.069 74.2876 162.386 59.3701 143.218 59.3701H58.866C39.7102 59.3701 24.0342 74.2691 22.794 93.1111H22.715L8.61624 155.194C5.96173 166.882 14.8466 178.011 26.8331 178.011C32.5286 178.011 37.9131 175.413 41.457 170.954Z" fill="url(#paint0_radial_1459_13747)"/>
</mask>
<g mask="url(#mask0_1459_13747)">
<path fill-rule="evenodd" clip-rule="evenodd" d="M41.457 170.954L72.6799 131.672H129.32L160.543 170.954C164.086 175.413 169.471 178.011 175.166 178.011C187.153 178.011 196.038 166.882 193.383 155.194L179.293 93.1461C178.069 74.2876 162.386 59.3701 143.218 59.3701H58.866C39.7102 59.3701 24.0342 74.2691 22.794 93.1111H22.715L8.61624 155.194C5.96173 166.882 14.8466 178.011 26.8331 178.011C32.5286 178.011 37.9131 175.413 41.457 170.954Z" fill="url(#paint1_radial_1459_13747)"/>
<path d="M55.5645 133.671C55.5645 132.566 56.4599 131.671 57.5645 131.671H73.6995L69.4679 135.671H57.5645C56.4599 135.671 55.5645 134.775 55.5645 133.671Z" fill="url(#paint2_radial_1459_13747)"/>
<rect x="63.1084" y="56.8828" width="50.3823" height="78.1239" fill="url(#paint3_radial_1459_13747)" fill-opacity="0.8"/>
<path fill-rule="evenodd" clip-rule="evenodd" d="M143.219 59.3701H102.205V125.759C102.205 129.025 104.852 131.672 108.118 131.672H129.32L160.543 170.954C164.087 175.413 169.471 178.011 175.167 178.011C187.153 178.011 196.038 166.882 193.384 155.194L179.293 93.1462C178.07 74.2876 162.386 59.3701 143.219 59.3701Z" fill="url(#paint4_radial_1459_13747)"/>
<path d="M104.415 56.8828H102.232V137.609H104.415V56.8828Z" fill="url(#paint5_radial_1459_13747)"/>
<path d="M146.44 133.671C146.44 132.566 145.545 131.671 144.44 131.671H128.305L132.537 135.671H144.44C145.545 135.671 146.44 134.775 146.44 133.671Z" fill="url(#paint6_radial_1459_13747)"/>
<circle cx="140.593" cy="82.7574" r="6.76427" fill="url(#paint7_radial_1459_13747)"/>
<circle cx="127.064" cy="96.2862" r="6.76427" fill="url(#paint8_radial_1459_13747)"/>
<circle cx="154.794" cy="96.2862" r="6.76427" fill="url(#paint9_radial_1459_13747)"/>
<circle cx="140.593" cy="109.815" r="6.76427" fill="url(#paint10_radial_1459_13747)"/>
<path d="M83.2807 98.5368V94.0359C72.1556 94.0359 63.1266 85.016 63.1266 73.8818H58.6258C58.6258 85.007 49.6059 94.0359 38.4717 94.0359V98.5368C49.5968 98.5368 58.6258 107.557 58.6258 118.691H63.1266C63.1266 107.566 72.1465 98.5368 83.2807 98.5368Z" fill="white"/>
<g filter="url(#filter0_f_1459_13747)">
<path d="M26.7384 89.5436L9.66211 150.436L21.5758 86.6313C26.3413 62.0626 44.9813 56.988 52.7472 57.2528L75.3578 57.7581L89.442 59.4002L61.8177 60.2888C38.4139 63.1481 28.6799 80.9834 26.7384 89.5436Z" fill="url(#paint11_radial_1459_13747)"/>
</g>
</g>
<path d="M89.4541 52.4302C89.4541 51.3256 90.3495 50.4302 91.4541 50.4302H111.491C112.595 50.4302 113.491 51.3256 113.491 52.4302V59.444H107.482V66.4578C107.482 67.5623 106.586 68.4578 105.482 68.4578H97.4633C96.3587 68.4578 95.4633 67.5623 95.4633 66.4578V59.444H89.4541V52.4302Z" fill="url(#paint12_radial_1459_13747)"/>
<defs>
<filter id="filter0_f_1459_13747" x="3.66211" y="51.2432" width="91.7798" height="105.193" filterUnits="userSpaceOnUse" color-interpolation-filters="sRGB">
<feFlood flood-opacity="0" result="BackgroundImageFix"/>
<feBlend mode="normal" in="SourceGraphic" in2="BackgroundImageFix" result="shape"/>
<feGaussianBlur stdDeviation="3" result="effect1_foregroundBlur_1459_13747"/>
</filter>
<radialGradient id="paint0_radial_1459_13747" cx="0" cy="0" r="1" gradientUnits="userSpaceOnUse" gradientTransform="translate(-61.62 80.8631) rotate(21.0866) scale(387.111 257.109)">
<stop stop-color="white"/>
<stop offset="0.169983" stop-color="#1B98E0"/>
<stop offset="0.674424" stop-color="#0C004B"/>
</radialGradient>
<radialGradient id="paint1_radial_1459_13747" cx="0" cy="0" r="1" gradientUnits="userSpaceOnUse" gradientTransform="translate(-61.62 80.8631) rotate(21.0866) scale(387.111 257.109)">
<stop stop-color="white"/>
<stop offset="0.169983" stop-color="#1B98E0"/>
<stop offset="0.674424" stop-color="#0C004B"/>
</radialGradient>
<radialGradient id="paint2_radial_1459_13747" cx="0" cy="0" r="1" gradientUnits="userSpaceOnUse" gradientTransform="translate(61.8888 132.396) rotate(12.1186) scale(22.3671 9.08354)">
<stop offset="0.325576" stop-color="#0C004B"/>
<stop offset="0.830017" stop-color="#1B98E0"/>
</radialGradient>
<radialGradient id="paint3_radial_1459_13747" cx="0" cy="0" r="1" gradientUnits="userSpaceOnUse" gradientTransform="translate(113.491 154.018) rotate(-113.561) scale(86.2952 51.0283)">
<stop stop-color="#0C004B"/>
<stop offset="0.90373" stop-color="#0C004B" stop-opacity="0"/>
</radialGradient>
<radialGradient id="paint4_radial_1459_13747" cx="0" cy="0" r="1" gradientUnits="userSpaceOnUse" gradientTransform="translate(126.263 66.2909) rotate(4.53151) scale(93.8529 121.187)">
<stop stop-color="white"/>
<stop offset="0.465" stop-color="#00CCA8"/>
<stop offset="0.97" stop-color="#1B98E0"/>
</radialGradient>
<radialGradient id="paint5_radial_1459_13747" cx="0" cy="0" r="1" gradientUnits="userSpaceOnUse" gradientTransform="translate(102.857 39.9534) rotate(89.71) scale(92.1993 1.26981)">
<stop offset="0.15" stop-color="#D0F5EF"/>
<stop offset="0.554923" stop-color="#D0F5EF"/>
<stop offset="1" stop-color="#D0F5EF" stop-opacity="0"/>
</radialGradient>
<radialGradient id="paint6_radial_1459_13747" cx="0" cy="0" r="1" gradientUnits="userSpaceOnUse" gradientTransform="translate(156.12 135.671) rotate(-164.956) scale(27.5 6.37982)">
<stop stop-color="#00CCA8"/>
<stop offset="0.97" stop-color="#0784CC"/>
</radialGradient>
<radialGradient id="paint7_radial_1459_13747" cx="0" cy="0" r="1" gradientUnits="userSpaceOnUse" gradientTransform="translate(128.746 78.444) rotate(31.1145) scale(30.7331 26.9015)">
<stop stop-color="white"/>
<stop offset="0.169983" stop-color="#1B98E0"/>
<stop offset="0.674424" stop-color="#0C004B"/>
</radialGradient>
<radialGradient id="paint8_radial_1459_13747" cx="0" cy="0" r="1" gradientUnits="userSpaceOnUse" gradientTransform="translate(115.218 91.9728) rotate(31.1145) scale(30.7331 26.9015)">
<stop stop-color="white"/>
<stop offset="0.169983" stop-color="#1B98E0"/>
<stop offset="0.674424" stop-color="#0C004B"/>
</radialGradient>
<radialGradient id="paint9_radial_1459_13747" cx="0" cy="0" r="1" gradientUnits="userSpaceOnUse" gradientTransform="translate(142.948 91.9728) rotate(31.1145) scale(30.7331 26.9015)">
<stop stop-color="white"/>
<stop offset="0.169983" stop-color="#1B98E0"/>
<stop offset="0.674424" stop-color="#0C004B"/>
</radialGradient>
<radialGradient id="paint10_radial_1459_13747" cx="0" cy="0" r="1" gradientUnits="userSpaceOnUse" gradientTransform="translate(128.746 105.501) rotate(31.1145) scale(30.7331 26.9015)">
<stop stop-color="white"/>
<stop offset="0.169983" stop-color="#1B98E0"/>
<stop offset="0.674424" stop-color="#0C004B"/>
</radialGradient>
<radialGradient id="paint11_radial_1459_13747" cx="0" cy="0" r="1" gradientUnits="userSpaceOnUse" gradientTransform="translate(66.6031 37.6993) rotate(99.1014) scale(107.794 45.8154)">
<stop offset="0.15" stop-color="#D0F5EF"/>
<stop offset="0.554923" stop-color="#D0F5EF"/>
<stop offset="1" stop-color="#D0F5EF" stop-opacity="0"/>
</radialGradient>
<radialGradient id="paint12_radial_1459_13747" cx="0" cy="0" r="1" gradientUnits="userSpaceOnUse" gradientTransform="translate(86.9999 39.5002) rotate(74.1573) scale(53.0137 49.9534)">
<stop stop-color="white"/>
<stop offset="0.169983" stop-color="#1B98E0"/>
<stop offset="0.674424" stop-color="#0C004B"/>
</radialGradient>
</defs>
</svg>
