<svg xmlns="http://www.w3.org/2000/svg" width="202" height="202" viewBox="0 0 202 202" fill="none">
<path d="M160.138 17.998C166.504 20.6374 172.289 24.506 177.16 29.3829C182.034 34.2574 185.9 40.045 188.538 46.4151C191.176 52.7851 192.534 59.6128 192.534 66.5081C192.534 73.4033 191.176 80.231 188.538 86.601C185.9 92.9711 182.034 98.7587 177.16 103.633L167.05 113.75L106.769 174.066C101.632 179.207 92.8438 175.568 92.8438 168.301V39.4992L102.954 29.3829C107.826 24.506 113.61 20.6374 119.976 17.998C126.342 15.3585 133.166 14 140.057 14C146.948 14 153.772 15.3585 160.138 17.998Z" fill="url(#paint0_radial_350_9379)"/>
<path d="M41.8649 17.998C35.4986 20.6374 29.7144 24.506 24.8428 29.3829C19.9689 34.2574 16.1026 40.045 13.4647 46.4151C10.8269 52.7851 9.46914 59.6128 9.46914 66.5081C9.46914 73.4033 10.8269 80.231 13.4647 86.601C16.1026 92.9711 19.9689 98.7587 24.8428 103.633L34.9531 113.75L95.2339 174.066C100.371 179.207 109.159 175.568 109.159 168.301V53.8017C109.159 44.6437 105.523 35.8605 99.0488 29.3829C94.1772 24.506 88.3931 20.6374 82.0268 17.998C75.6606 15.3585 68.8369 14 61.9458 14C55.0547 14 48.2311 15.3585 41.8649 17.998Z" fill="url(#paint1_radial_350_9379)"/>
<path d="M41.8649 17.998C35.4986 20.6374 29.7144 24.506 24.8428 29.3829C19.9689 34.2574 16.1026 40.045 13.4647 46.4151C10.8269 52.7851 9.46914 59.6128 9.46914 66.5081C9.46914 73.4033 10.8269 80.231 13.4647 86.601C16.1026 92.9711 19.9689 98.7587 24.8428 103.633L34.9531 113.75L95.2339 174.066C100.371 179.207 109.159 175.568 109.159 168.301V53.8017C109.159 44.6437 105.523 35.8605 99.0488 29.3829C94.1772 24.506 88.3931 20.6374 82.0268 17.998C75.6606 15.3585 68.8369 14 61.9458 14C55.0547 14 48.2311 15.3585 41.8649 17.998Z" fill="url(#paint2_radial_350_9379)"/>
<path d="M167.156 64.7146V60.2542C156.131 60.2542 147.183 51.3154 147.183 40.2812H142.723C142.723 51.3064 133.784 60.2542 122.75 60.2542V64.7146C133.775 64.7146 142.723 73.6534 142.723 84.6875H147.183C147.183 73.6624 156.122 64.7146 167.156 64.7146Z" fill="white"/>
<defs>
<radialGradient id="paint0_radial_350_9379" cx="0" cy="0" r="1" gradientUnits="userSpaceOnUse" gradientTransform="translate(205.219 48.8906) rotate(-98.0781) scale(164.156 286.519)">
<stop offset="0.08" stop-color="#0C004B"/>
<stop offset="0.433059" stop-color="#259EE5"/>
<stop offset="0.795531" stop-color="white"/>
</radialGradient>
<radialGradient id="paint1_radial_350_9379" cx="0" cy="0" r="1" gradientUnits="userSpaceOnUse" gradientTransform="translate(11.6206 -23.6734) rotate(180) scale(150.84 263.278)">
<stop stop-color="white"/>
<stop offset="0.525" stop-color="#00CCA8"/>
<stop offset="0.97" stop-color="#1B98E0"/>
</radialGradient>
<radialGradient id="paint2_radial_350_9379" cx="0" cy="0" r="1" gradientUnits="userSpaceOnUse" gradientTransform="translate(11.6206 -23.6734) rotate(180) scale(150.84 263.278)">
<stop offset="0.195" stop-color="white"/>
<stop offset="0.655" stop-color="#00CCA8"/>
<stop offset="0.97" stop-color="#1B98E0"/>
</radialGradient>
</defs>
</svg>