<svg viewBox="0 0 202 202" fill="none" xmlns="http://www.w3.org/2000/svg">
<path d="M73.0301 76.214C74.296 74.0213 77.0998 73.27 79.2925 74.536L120.98 98.6041C123.172 99.8701 123.924 102.674 122.658 104.867L75.3913 186.734C73.7547 189.569 69.7604 189.825 67.7757 187.222L54.2818 169.526C53.5387 168.552 52.4365 167.915 51.221 167.759L29.1492 164.921C25.9028 164.504 24.1271 160.916 25.7637 158.082L73.0301 76.214Z" fill="url(#paint0_radial_1459_13773)"/>
<path d="M128.97 76.214C127.704 74.0213 124.9 73.27 122.708 74.536L81.0203 98.6041C78.8276 99.8701 78.0763 102.674 79.3423 104.867L126.609 186.734C128.245 189.569 132.24 189.825 134.224 187.222L147.718 169.526C148.461 168.552 149.564 167.915 150.779 167.759L172.851 164.921C176.097 164.504 177.873 160.916 176.236 158.082L128.97 76.214Z" fill="url(#paint1_radial_1459_13773)"/>
<path d="M90.6949 17.7207C92.9817 6.49885 109.017 6.49885 111.304 17.7207C112.871 25.4123 122.008 28.7376 128.152 23.8531C137.117 16.7266 149.401 27.0339 143.94 37.1003C140.197 43.9999 145.058 52.42 152.905 52.6279C164.353 52.9314 167.138 68.7231 156.483 72.9239C149.181 75.8031 147.493 85.378 153.37 90.5812C161.945 98.1726 153.927 112.06 143.065 108.429C135.621 105.941 128.173 112.19 129.33 119.954C131.02 131.281 115.951 136.766 109.964 127.003C105.861 120.311 96.1381 120.311 92.0345 127.003C86.0475 136.766 70.9792 131.281 72.6684 119.954C73.8261 112.19 66.3781 105.941 58.9334 108.429C48.0715 112.06 40.0538 98.1726 48.6288 90.5812C54.5062 85.378 52.8179 75.8031 45.5154 72.9239C34.8611 68.7231 37.6456 52.9314 49.0941 52.6279C56.941 52.42 61.8023 43.9999 58.059 37.1003C52.5975 27.0339 64.8813 16.7266 73.8464 23.8531C79.9911 28.7376 89.1275 25.4123 90.6949 17.7207Z" fill="url(#paint2_radial_1459_13773)"/>
<circle cx="101" cy="72.2438" r="43.9516" fill="url(#paint3_radial_1459_13773)"/>
<path d="M126.678 74.823V69.6645C113.927 69.6645 103.579 59.3268 103.579 46.5659H98.4209C98.4209 59.3164 88.0832 69.6645 75.3223 69.6645V74.823C88.0728 74.823 98.4209 85.1607 98.4209 97.9216H103.579C103.579 85.1711 113.917 74.823 126.678 74.823Z" fill="white"/>
<defs>
<radialGradient id="paint0_radial_1459_13773" cx="0" cy="0" r="1" gradientUnits="userSpaceOnUse" gradientTransform="translate(22.3219 182.49) rotate(-44.1901) scale(128.908 126.755)">
<stop stop-color="white"/>
<stop offset="0.169983" stop-color="#1B98E0"/>
<stop offset="0.674424" stop-color="#0C004B"/>
</radialGradient>
<radialGradient id="paint1_radial_1459_13773" cx="0" cy="0" r="1" gradientUnits="userSpaceOnUse" gradientTransform="translate(182.144 184.324) rotate(-137.468) scale(150.553 148.039)">
<stop stop-color="white"/>
<stop offset="0.169983" stop-color="#1B98E0"/>
<stop offset="0.674424" stop-color="#0C004B"/>
</radialGradient>
<radialGradient id="paint2_radial_1459_13773" cx="0" cy="0" r="1" gradientUnits="userSpaceOnUse" gradientTransform="translate(58.8229 5.5319) rotate(49.2866) scale(177.816 177.816)">
<stop stop-color="white"/>
<stop offset="0.465" stop-color="#00CCA8"/>
<stop offset="0.97" stop-color="#1B98E0"/>
</radialGradient>
<radialGradient id="paint3_radial_1459_13773" cx="0" cy="0" r="1" gradientUnits="userSpaceOnUse" gradientTransform="translate(50.1129 34.4137) rotate(40.8209) scale(155.69 136.279)">
<stop stop-color="white"/>
<stop offset="0.169983" stop-color="#1B98E0"/>
<stop offset="0.674424" stop-color="#0C004B"/>
</radialGradient>
</defs>
</svg>
