<svg xmlns="http://www.w3.org/2000/svg" width="202" height="202" viewBox="0 0 202 202" fill="none">
<circle cx="104" cy="105" r="75" fill="url(#paint0_radial_643_4604)"/>
<circle cx="158" cy="53" r="30" transform="rotate(180 158 53)" fill="url(#paint1_radial_643_4604)"/>
<path d="M134 121.126C134 125.108 132.968 128.8 130.903 132.203C128.909 135.533 125.918 138.284 121.931 140.456C118.015 142.556 113.351 143.714 107.94 143.931V152.727H101.104V143.823C93.5563 143.171 87.4684 140.891 82.8402 136.981C78.2119 132.999 75.7554 127.606 75.4706 120.801H94.9092C95.3364 125.144 97.4014 127.932 101.104 129.162V112.004C95.5501 110.556 91.0998 109.145 87.7532 107.769C84.4779 106.394 81.5941 104.186 79.102 101.145C76.6098 98.1043 75.3638 93.9415 75.3638 88.6566C75.3638 82.0685 77.7491 76.7836 82.5198 72.8018C87.3616 68.82 93.5563 66.5757 101.104 66.0689V57.2728H107.94V66.0689C115.416 66.6481 121.326 68.8562 125.669 72.6932C130.013 76.5302 132.434 81.8513 132.932 88.6566H113.387C112.959 84.7472 111.144 82.2133 107.94 81.055V97.8871C113.849 99.5522 118.406 101.036 121.611 102.339C124.815 103.643 127.663 105.814 130.155 108.855C132.718 111.823 134 115.914 134 121.126ZM94.6956 87.7878C94.6956 89.5977 95.2296 91.118 96.2977 92.3488C97.437 93.5795 99.039 94.6655 101.104 95.6066V80.512C99.1102 80.874 97.5438 81.6703 96.4045 82.9011C95.2652 84.0594 94.6956 85.6883 94.6956 87.7878ZM107.94 129.488C110.076 129.126 111.749 128.257 112.959 126.882C114.241 125.506 114.882 123.805 114.882 121.778C114.882 119.896 114.277 118.375 113.066 117.217C111.927 115.986 110.218 114.936 107.94 114.068V129.488Z" fill="white"/>
<path d="M173.727 54.4571V51.2702C165.85 51.2702 159.457 44.8836 159.457 37H156.27C156.27 44.8772 149.884 51.2702 142 51.2702V54.4571C149.877 54.4571 156.27 60.8437 156.27 68.7273H159.457C159.457 60.8501 165.844 54.4571 173.727 54.4571Z" fill="white"/>
<defs>
<radialGradient id="paint0_radial_643_4604" cx="0" cy="0" r="1" gradientUnits="userSpaceOnUse" gradientTransform="translate(68.375 38.75) rotate(3.50353) scale(153.412)">
<stop stop-color="white"/>
<stop offset="0.465" stop-color="#00CCA8"/>
<stop offset="0.97" stop-color="#1B98E0"/>
</radialGradient>
<radialGradient id="paint1_radial_643_4604" cx="0" cy="0" r="1" gradientUnits="userSpaceOnUse" gradientTransform="translate(179.5 83) rotate(42.1196) scale(112.572 112.461)">
<stop stop-color="white"/>
<stop offset="0.196489" stop-color="#1B98E0"/>
<stop offset="0.513439" stop-color="#0C004B"/>
</radialGradient>
</defs>
</svg>