<svg xmlns="http://www.w3.org/2000/svg" width="202" height="202" viewBox="0 0 202 202" fill="none">
<circle cx="101" cy="101" r="43.3929" fill="url(#paint0_radial_643_4682)"/>
<path d="M81.1523 20C79.9673 20 79.0066 20.9607 79.0066 22.1457V47.9034L60.7932 29.6899C59.9552 28.852 58.5966 28.852 57.7587 29.6899L29.6898 57.7588C28.8519 58.5967 28.8519 59.9553 29.6898 60.7933L47.9032 79.0066H22.1457C20.9607 79.0066 20 79.9673 20 81.1523V120.848C20 122.033 20.9607 122.993 22.1457 122.993H47.9036L29.6902 141.207C28.8522 142.045 28.8522 143.403 29.6902 144.241L57.759 172.31C58.597 173.148 59.9556 173.148 60.7935 172.31L79.0066 154.097V179.854C79.0066 181.039 79.9673 182 81.1523 182H120.848C122.033 182 122.993 181.039 122.993 179.854V154.097L141.207 172.31C142.045 173.148 143.403 173.148 144.241 172.31L172.31 144.241C173.148 143.403 173.148 142.045 172.31 141.207L154.097 122.993H179.854C181.039 122.993 182 122.033 182 120.848V81.1523C182 79.9673 181.039 79.0066 179.854 79.0066H154.097L172.31 60.7933C173.148 59.9553 173.148 58.5967 172.31 57.7588L144.241 29.6899C143.404 28.852 142.045 28.852 141.207 29.6899L122.993 47.9036V22.1457C122.993 20.9607 122.033 20 120.848 20H81.1523Z" fill="url(#paint1_radial_643_4682)"/>
<path d="M182 113.753V87.8646H170.837C168.995 77.8328 165.048 68.5381 159.474 60.4494L167.372 52.5513L149.066 34.2453L141.168 42.1434C133.082 36.5696 123.785 32.623 113.753 30.7801V19.62H87.8647V30.7776C77.8304 32.6205 68.5357 36.5671 60.447 42.1409L52.554 34.2478L34.2479 52.5538L42.141 60.4469C36.5647 68.5356 32.6181 77.8303 30.7752 87.8646H19.6201V113.753H30.7752C32.6181 123.787 36.5647 133.082 42.141 141.171L34.2479 149.064L52.554 167.37L60.447 159.477C68.5357 165.05 77.8304 168.997 87.8647 170.84V181.997H113.753V170.837C123.785 168.994 133.082 165.048 141.168 159.474L149.066 167.372L167.372 149.066L159.474 141.168C165.048 133.082 168.995 123.785 170.837 113.753H182Z" fill="url(#paint2_radial_643_4682)"/>
<circle cx="101" cy="101" r="50" fill="url(#paint3_radial_643_4682)"/>
<circle cx="101" cy="101" r="36" transform="rotate(180 101 101)" fill="url(#paint4_radial_643_4682)"/>
<path d="M126 103.961V99.0391C113.834 99.0391 103.961 89.1756 103.961 77H99.0391C99.0391 89.1657 89.1756 99.0391 77 99.0391V103.961C89.1657 103.961 99.0391 113.824 99.0391 126H103.961C103.961 113.834 113.824 103.961 126 103.961Z" fill="white"/>
<defs>
<radialGradient id="paint0_radial_643_4682" cx="0" cy="0" r="1" gradientUnits="userSpaceOnUse" gradientTransform="translate(132.098 144.393) rotate(42.1196) scale(162.828 162.667)">
<stop stop-color="white"/>
<stop offset="0.196489" stop-color="#1B98E0"/>
<stop offset="0.513439" stop-color="#0C004B"/>
</radialGradient>
<radialGradient id="paint1_radial_643_4682" cx="0" cy="0" r="1" gradientUnits="userSpaceOnUse" gradientTransform="translate(0.500004 28.5) rotate(14.078) scale(166.501 57.4824)">
<stop stop-color="white"/>
<stop offset="0.565" stop-color="#00CCA8"/>
<stop offset="0.97" stop-color="#1B98E0"/>
</radialGradient>
<radialGradient id="paint2_radial_643_4682" cx="0" cy="0" r="1" gradientUnits="userSpaceOnUse" gradientTransform="translate(58 54.5) rotate(23.884) scale(148.19 148.188)">
<stop stop-color="white"/>
<stop offset="0.395" stop-color="#00CCA8"/>
<stop offset="0.97" stop-color="#1B98E0"/>
</radialGradient>
<radialGradient id="paint3_radial_643_4682" cx="0" cy="0" r="1" gradientUnits="userSpaceOnUse" gradientTransform="translate(148.841 29.3485) scale(151.309)">
<stop stop-color="#00CCA8"/>
<stop offset="0.97" stop-color="#1B98E0"/>
</radialGradient>
<radialGradient id="paint4_radial_643_4682" cx="0" cy="0" r="1" gradientUnits="userSpaceOnUse" gradientTransform="translate(126.8 137) rotate(42.1196) scale(135.087 134.953)">
<stop stop-color="white"/>
<stop offset="0.196489" stop-color="#1B98E0"/>
<stop offset="0.513439" stop-color="#0C004B"/>
</radialGradient>
</defs>
</svg>