<svg viewBox="0 0 938 327" fill="none" xmlns="http://www.w3.org/2000/svg">
<path d="M583.003 204.092V241.556L468.672 302.158L353.401 241.534V203.195H331.842V255.031L468.694 327L604.54 255.008V192.68L583.003 204.092Z" fill="#0AB8ED"/>
<path d="M353.401 22.1064H583.003V79.323H604.54V0H331.842V79.323H353.401V22.1064Z" fill="#0AB8ED"/>
<path d="M180.909 127.302C180.909 108.065 167.9 92.954 144.679 92.954H97.5608V188.308H124.673V145.305L154.672 188.308H187.053L164.052 156.426C173.104 152.211 180.888 141.113 180.888 127.279L180.909 127.302ZM140.022 139.656H124.673V116.204H140.022C148.309 116.204 153.163 119.858 153.163 127.862C153.163 135.866 148.025 139.656 140.022 139.656Z" fill="white"/>
<path d="M242.087 91.564C212.57 91.564 192.235 111.653 192.235 140.507C192.235 169.362 212.57 189.742 242.087 189.742C271.605 189.742 291.676 169.587 291.676 140.597C291.676 111.608 271.473 91.5864 242.087 91.5864V91.564ZM242.218 164.811C228.859 164.811 219.894 154.991 219.894 140.575C219.894 126.158 228.859 116.697 242.218 116.697C255.578 116.697 263.996 126.383 263.996 140.575C263.996 154.767 255.293 164.811 242.218 164.811Z" fill="white"/>
<path d="M493.97 92.9092H451.443V188.263H493.97C524.384 188.263 542.466 171.627 542.466 140.238C542.466 108.85 524.252 92.9092 493.97 92.9092ZM492.395 165.529H478.358V115.8H492.395C506.236 115.8 514.719 123.603 514.719 140.238C514.719 155.888 506.848 165.529 492.395 165.529Z" fill="white"/>
<path d="M679.974 92.9092H652.643V188.285H724.622V165.954H679.974V92.9092Z" fill="white"/>
<path d="M907.28 92.9092L884.628 128.445L862.785 92.9092H830.994L871.138 153.444V188.285H898.184V153.444L937.978 92.9092H907.28Z" fill="white"/>
<path d="M321.456 92.9092L337.068 158.152L355.959 94.2544H376.512L395.403 158.152L411.08 92.9092H437.93L413.267 188.263H381.278L366.214 142.413L351.214 188.263H319.161L294.497 92.9092H321.456Z" fill="white"/>
<path d="M773.795 92.9092L738.046 188.285H766.974L790.085 119.32L805.893 167.143H784.793L799.53 188.263H812.89V188.285H842.057L806.374 92.9092H773.795Z" fill="white"/>
<path d="M58.3353 165.439C42.5489 165.439 28.2712 157.502 28.2712 140.306C28.2712 123.109 42.7457 115.868 58.4665 115.868C67.8902 115.868 76.5487 118.11 83.13 121.405V96.6982C73.6844 92.954 64.851 91.564 55.8427 91.564C25.9754 91.6312 0 107.864 0 140.642C0.0655944 170.708 23.7014 189.72 52.6505 189.72C63.2112 189.72 72.8317 188.577 83.13 183.756V157.995C74.8214 163.197 67.4748 165.439 58.3353 165.439Z" fill="white"/>
<path d="M602.988 92.9092H555.869V203.195L582.981 188.823V145.283L594.898 162.367L595.094 162.659H602.9C610.903 162.659 617.637 160.731 623.103 157.457C631.784 152.256 637.119 143.579 638.627 133.445C638.977 131.45 639.174 129.409 639.174 127.279C639.174 108.043 626.164 92.9316 602.944 92.9316L602.988 92.9092ZM598.33 139.611H582.981V116.025H598.265C603.49 116.025 607.339 117.482 609.481 120.598C610.793 122.414 611.493 124.813 611.493 127.84C611.493 135.575 606.355 139.633 598.352 139.633L598.33 139.611Z" fill="white"/>
</svg>
