
<svg viewBox="0 0 728 306" fill="none" xmlns="http://www.w3.org/2000/svg">
<g clip-path="url(#clip0_1929_52142)">
<mask id="mask0_1929_52142" style="mask-type:luminance" maskUnits="userSpaceOnUse" x="1" y="1" width="727" height="221">
<path d="M178.063 119.649C173.087 114.457 167.245 110.563 160.538 107.75C153.831 104.937 146.259 103.639 138.038 103.639C129.6 103.639 121.811 105.154 114.455 107.75C107.316 110.563 100.825 114.673 95.6325 119.649C90.2237 124.842 86.113 131.116 82.8677 138.256C79.8388 145.612 78.1079 153.833 78.1079 162.704C78.1079 172.007 79.6224 180.444 82.8677 187.584C86.113 194.724 90.44 200.998 96.0652 205.974C101.69 210.95 108.181 214.628 115.537 217.224C122.893 219.821 130.898 221.119 139.119 221.119C150.37 221.119 160.322 219.172 168.76 215.061C177.197 210.95 184.121 205.109 189.313 197.536C189.529 197.32 189.529 197.104 189.529 196.887C189.529 196.671 189.313 196.455 189.097 196.455L164 180.661C163.567 180.444 163.134 180.444 162.918 180.877C160.538 184.122 157.293 186.935 153.615 188.882C149.721 190.829 144.961 191.911 139.552 191.911C136.523 191.911 133.278 191.478 130.465 190.397C127.653 189.315 124.84 188.017 122.46 186.286C120.08 184.555 118.133 182.392 116.835 180.012C115.753 178.497 115.104 176.766 114.672 174.819L114.239 172.872H192.558C192.991 172.872 193.207 172.656 193.207 172.223C193.424 170.925 193.424 169.41 193.424 167.896V163.569C193.424 154.266 192.126 145.612 189.313 138.256C186.717 131.116 182.823 124.842 178.063 119.649ZM158.591 150.155H114.672C114.455 150.155 114.239 150.155 114.239 149.939C114.239 149.722 114.022 149.506 114.022 149.506C114.239 146.693 114.888 144.097 116.186 141.717C117.484 139.121 119.215 136.958 121.378 135.227C123.542 133.28 126.138 131.982 128.951 130.9C131.763 129.818 135.009 129.385 138.254 129.385C145.177 129.385 150.586 131.332 154.048 135.443C157.509 139.337 159.24 144.314 159.24 149.939C159.24 149.722 159.024 150.155 158.591 150.155ZM251.623 108.832H277.369V135.659H251.623V177.416C251.623 182.608 252.704 186.502 254.652 188.882C256.599 191.262 260.06 192.777 265.253 192.777C266.984 192.777 268.931 192.56 270.878 192.344C272.825 192.128 274.556 191.695 275.854 191.046L276.287 217.441C273.907 218.306 270.662 219.172 266.767 219.821C262.873 220.47 259.195 220.902 255.301 220.902C247.945 220.902 241.887 220.037 236.911 218.09C231.935 216.359 228.04 213.546 225.011 210.085C221.982 206.623 219.819 202.512 218.521 197.753C217.223 192.993 216.574 187.584 216.574 181.743V135.659H199.049V108.832H216.357V80.0569H251.623V108.832ZM397.877 134.145C399.175 139.554 400.041 144.963 400.041 150.371V217.873H363.91V158.809C363.91 155.78 363.693 152.751 363.261 149.939C362.828 147.126 361.962 144.746 360.664 142.583C359.366 140.419 357.852 138.688 355.688 137.607C353.741 136.309 350.928 135.659 347.9 135.659C341.625 135.659 336.866 137.823 333.404 142.366C329.942 146.91 328.428 152.319 328.428 159.026V218.09H292.513V52.1474H328.428V122.462H328.861C331.24 118.135 335.351 114.241 340.76 110.779C346.169 107.317 352.659 105.586 360.232 105.586C367.588 105.586 373.862 106.885 379.054 109.481C384.03 112.077 388.141 115.539 391.386 119.649C394.199 123.976 396.363 128.736 397.877 134.145ZM75.079 105.586L73.5645 137.39C73.5645 137.607 73.3482 137.823 73.3482 138.039C73.1318 138.256 72.9155 138.256 72.6991 138.256C71.1846 137.823 69.6702 137.607 68.1557 137.39C61.6651 136.741 56.04 137.607 51.9293 139.77C48.684 141.501 46.0878 143.448 44.3569 145.828C42.4098 148.208 41.1116 150.804 40.2462 153.617C39.3808 156.429 38.9481 159.026 38.9481 160.973V217.008C38.9481 217.441 38.5154 217.657 38.0827 217.657H1.95184C1.51913 217.657 1.08643 217.224 1.08643 217.008V107.966C1.08643 107.534 1.51913 107.317 1.95184 107.317H36.5682C37.0009 107.317 37.4337 107.75 37.4337 107.966V120.948L40.2462 117.27C42.6261 114.241 45.2223 111.644 48.4676 109.481C53.6601 105.803 59.718 104.072 66.6412 104.072C68.1557 104.072 69.4538 104.072 70.9683 104.288C72.4828 104.505 73.5645 104.721 74.4299 104.937C74.8626 104.937 75.079 105.37 75.079 105.586ZM420.81 89.5764C420.378 85.682 422.108 82.8695 425.137 82.6531C434.008 82.4368 442.662 82.4368 451.532 82.6531C455.21 82.6531 456.076 85.6821 456.076 88.711C456.076 91.7399 454.778 94.3362 451.316 94.3362C451.316 94.3362 451.1 94.3362 450.883 94.3362C449.802 99.5286 445.258 102.558 438.551 102.558C431.628 102.558 427.085 99.5286 426.003 94.3362C422.758 94.3362 421.243 92.6053 420.81 89.5764ZM727.382 218.09H682.813L647.115 165.732H646.466V218.09H610.335V52.1474H646.466V152.968H647.115L681.948 108.615H725.651L683.679 158.16L727.382 218.09ZM586.104 134.145C587.402 139.554 588.267 144.963 588.267 150.371V217.873H552.136V158.377C552.136 155.348 551.92 152.319 551.271 149.506C550.838 146.693 549.973 144.314 548.675 142.15C547.593 139.987 545.862 138.256 543.699 137.174C541.535 135.876 538.939 135.227 535.694 135.227C532.448 135.227 529.636 135.876 527.256 137.174C524.876 138.472 522.929 140.203 521.198 142.366C519.683 144.53 518.385 147.126 517.52 149.939C516.655 152.751 516.222 155.78 516.222 158.809V218.09H480.091V108.832H514.924V123.976H515.356C516.655 121.597 518.385 119.433 520.549 117.053C522.712 114.89 525.092 112.942 527.905 111.212C530.717 109.697 533.963 108.183 537.208 107.317C540.67 106.236 544.131 105.803 548.026 105.803C555.382 105.803 561.439 107.101 566.632 109.697C571.824 112.293 575.935 115.755 578.964 119.866C582.642 123.976 584.806 128.736 586.104 134.145ZM421.676 108.832H457.59V218.09H421.676V108.832ZM464.081 37.8681C464.297 39.1663 463.432 40.248 462.134 40.4644H461.917C460.836 40.4644 459.754 39.599 459.754 38.5172C457.59 21.4253 441.797 19.6945 441.147 19.6945C439.849 19.4782 438.984 18.3964 439.2 17.3146C439.417 16.0165 440.498 15.1511 441.58 15.3675C441.797 14.9348 461.485 17.0983 464.081 37.8681ZM464.081 10.8241C450.234 -1.50803 429.464 -2.37344 414.753 9.3096C400.041 20.9926 395.713 41.3298 404.584 57.9889C407.829 64.2632 411.291 70.321 414.753 76.3789C415.402 77.677 417.349 78.7588 418.863 78.7588C425.137 78.9751 431.412 78.9751 437.686 78.9751C443.96 78.9751 450.234 79.1915 456.509 78.7588C458.023 78.7588 460.187 77.4606 461.052 76.1625C464.73 70.9701 467.975 65.3449 471.22 59.9361C480.956 43.7097 478.144 23.3725 464.081 10.8241ZM463.648 55.3927C461.052 59.0707 458.672 62.7487 456.509 66.643C455.427 68.5902 453.912 69.4556 451.532 69.4556C446.989 69.2393 442.446 69.4556 437.686 69.4556C432.926 69.4556 427.95 69.672 423.19 69.4556C421.892 69.4556 420.378 68.3738 419.729 67.5084C416.7 62.7487 414.103 57.7726 411.507 52.7965C405.882 42.1952 407.613 28.7813 415.834 19.4782C424.056 10.175 436.82 6.71337 448.72 10.8241C460.403 14.9348 468.408 25.7524 468.841 37.6518C468.841 44.1424 467.326 49.9839 463.648 55.3927Z" fill="white"/>
</mask>
<g mask="url(#mask0_1929_52142)">
<path d="M727.814 -4.10352H-0.211914V226.961H727.814V-4.10352Z" fill="url(#paint0_linear_1929_52142)"/>
</g>
<path d="M294.459 239.726H310.036V289.055H341.407V303.983H294.459V239.726Z" fill="white"/>
<path d="M342.922 271.53C342.922 253.789 353.74 238.645 377.755 238.645C401.77 238.645 412.587 253.789 412.587 271.53C412.587 289.704 402.419 305.065 377.755 305.065C353.74 305.065 342.922 290.785 342.922 271.53ZM396.361 271.746C396.361 261.362 390.303 252.491 377.755 252.491C365.206 252.491 359.148 261.362 359.148 271.746C359.148 283.213 364.99 291.435 377.755 291.435C390.736 291.218 396.361 282.78 396.361 271.746Z" fill="white"/>
<path d="M437.684 278.021L408.909 239.943H429.463L446.555 263.309H446.771L463.863 239.943H482.037L453.262 278.021V303.983H437.684V278.021Z" fill="white"/>
<path d="M521.629 290.786H490.474L485.066 303.767H469.055L498.047 239.51H516.437L545.212 303.767H527.254L521.629 290.786ZM517.086 279.968L506.052 253.789L495.018 279.968H517.086Z" fill="white"/>
<path d="M550.837 239.726H566.414V289.055H597.785V303.983H550.837V239.726Z" fill="white"/>
<path d="M610.55 253.573H589.564V239.726H646.897V253.573H625.911V303.983H610.334V253.573H610.55Z" fill="white"/>
<path d="M678.485 278.021L649.71 239.943H670.263L687.355 263.309H687.572L704.663 239.943H722.837L694.062 278.021V303.983H678.485V278.021Z" fill="white"/>
</g>
<defs>
<linearGradient id="paint0_linear_1929_52142" x1="363.776" y1="226.805" x2="363.776" y2="-4.20931" gradientUnits="userSpaceOnUse">
<stop stop-color="#C285FF"/>
<stop offset="0.1732" stop-color="#B683FF"/>
<stop offset="0.4533" stop-color="#817AFF"/>
<stop offset="0.5841" stop-color="#7177FF"/>
<stop offset="0.6729" stop-color="#6975FF"/>
<stop offset="0.904" stop-color="#5772FF"/>
<stop offset="0.9427" stop-color="#5271FF"/>
</linearGradient>
<clipPath id="clip0_1929_52142">
<rect width="728" height="305.399" fill="white"/>
</clipPath>
</defs>
</svg>
