<svg viewBox="0 0 428 322" fill="none" xmlns="http://www.w3.org/2000/svg">
<g opacity="0.24" filter="url(#filter0_d_1575_16622)">
<path d="M37.001 82.1196V80.4653C32.9119 80.4653 29.5933 77.15 29.5933 73.0576H27.939C27.939 77.1467 24.6237 80.4653 20.5312 80.4653V82.1196C24.6203 82.1196 27.939 85.4349 27.939 89.5274H29.5933C29.5933 85.4383 32.9086 82.1196 37.001 82.1196Z" fill="white"/>
<path d="M89.6953 30.0191V28.3647C85.6062 28.3647 82.2876 25.0495 82.2876 20.957H80.6333C80.6333 25.0461 77.318 28.3647 73.2256 28.3647V30.0191C77.3147 30.0191 80.6333 33.3343 80.6333 37.4268H82.2876C82.2876 33.3377 85.6029 30.0191 89.6953 30.0191Z" fill="white"/>
<path d="M89.6953 188.099V186.444C85.6062 186.444 82.2876 183.129 82.2876 179.037H80.6333C80.6333 183.126 77.318 186.444 73.2256 186.444V188.099C77.3147 188.099 80.6333 191.414 80.6333 195.506H82.2876C82.2876 191.417 85.6029 188.099 89.6953 188.099Z" fill="white"/>
<path d="M89.6953 135.997V134.343C85.6062 134.343 82.2876 131.028 82.2876 126.935H80.6333C80.6333 131.024 77.318 134.343 73.2256 134.343V135.997C77.3147 135.997 80.6333 139.313 80.6333 143.405H82.2876C82.2876 139.316 85.6029 135.997 89.6953 135.997Z" fill="white"/>
<path d="M142.387 82.1196V80.4653C138.298 80.4653 134.979 77.15 134.979 73.0576H133.325C133.325 77.1467 130.009 80.4653 125.917 80.4653V82.1196C130.006 82.1196 133.325 85.4349 133.325 89.5274H134.979C134.979 85.4383 138.294 82.1196 142.387 82.1196Z" fill="white"/>
<path d="M195.672 29.426V27.7717C191.583 27.7717 188.264 24.4564 188.264 20.364H186.61C186.61 24.4531 183.295 27.7717 179.202 27.7717V29.426C183.291 29.426 186.61 32.7413 186.61 36.8337H188.264C188.264 32.7447 191.579 29.426 195.672 29.426Z" fill="white"/>
<path d="M37.001 294.669V293.015C32.9119 293.015 29.5933 289.7 29.5933 285.607H27.939C27.939 289.696 24.6237 293.015 20.5312 293.015V294.669C24.6203 294.669 27.939 297.984 27.939 302.077H29.5933C29.5933 297.988 32.9086 294.669 37.001 294.669Z" fill="white"/>
<path d="M142.387 241.384V239.729C138.298 239.729 134.979 236.414 134.979 232.322H133.325C133.325 236.411 130.009 239.729 125.917 239.729V241.384C130.006 241.384 133.325 244.699 133.325 248.791H134.979C134.979 244.702 138.294 241.384 142.387 241.384Z" fill="white"/>
<path d="M195.672 294.076V292.422C191.583 292.422 188.264 289.107 188.264 285.014H186.61C186.61 289.103 183.295 292.422 179.202 292.422V294.076C183.291 294.076 186.61 297.392 186.61 301.484H188.264C188.264 297.395 191.579 294.076 195.672 294.076Z" fill="white"/>
<path d="M43.2437 30.176V27.2386C35.9831 27.2386 30.0905 21.3519 30.0905 14.0854H27.1531C27.1531 21.346 21.2665 27.2386 14 27.2386V30.176C21.2606 30.176 27.1531 36.0626 27.1531 43.3291H30.0905C30.0905 36.0685 35.9772 30.176 43.2437 30.176Z" fill="white"/>
<path d="M149.094 30.1755V27.2381C141.834 27.2381 135.941 21.3515 135.941 14.085H133.004C133.004 21.3455 127.117 27.2381 119.851 27.2381V30.1755C127.111 30.1755 133.004 36.0621 133.004 43.3286H135.941C135.941 36.068 141.828 30.1755 149.094 30.1755Z" fill="white"/>
<path d="M96.1685 83.1003V80.1629C88.9079 80.1629 83.0153 74.2763 83.0153 67.0098H80.0779C80.0779 74.2703 74.1913 80.1629 66.9248 80.1629V83.1003C74.1854 83.1003 80.0779 88.9869 80.0779 96.2534H83.0153C83.0153 88.9929 88.902 83.1003 96.1685 83.1003Z" fill="white"/>
<path d="M202.021 83.1005V80.1631C194.76 80.1631 188.868 74.2765 188.868 67.01H185.93C185.93 74.2706 180.044 80.1631 172.777 80.1631V83.1005C180.038 83.1005 185.93 88.9872 185.93 96.2537H188.868C188.868 88.9931 194.755 83.1005 202.021 83.1005Z" fill="white"/>
<path d="M43.2437 136.028V133.09C35.9831 133.09 30.0905 127.204 30.0905 119.937H27.1531C27.1531 127.198 21.2665 133.09 14 133.09V136.028C21.2606 136.028 27.1531 141.914 27.1531 149.181H30.0905C30.0905 141.92 35.9772 136.028 43.2437 136.028Z" fill="white"/>
<path d="M149.094 136.028V133.09C141.834 133.09 135.941 127.204 135.941 119.937H133.004C133.004 127.198 127.117 133.09 119.851 133.09V136.028C127.111 136.028 133.004 141.914 133.004 149.181H135.941C135.941 141.92 141.828 136.028 149.094 136.028Z" fill="white"/>
<path d="M43.2437 188.952V186.015C35.9831 186.015 30.0905 180.128 30.0905 172.862H27.1531C27.1531 180.122 21.2665 186.015 14 186.015V188.952C21.2606 188.952 27.1531 194.839 27.1531 202.105H30.0905C30.0905 194.845 35.9772 188.952 43.2437 188.952Z" fill="white"/>
<path d="M149.094 188.952V186.015C141.834 186.015 135.941 180.128 135.941 172.862H133.004C133.004 180.122 127.117 186.015 119.851 186.015V188.952C127.111 188.952 133.004 194.839 133.004 202.105H135.941C135.941 194.845 141.828 188.952 149.094 188.952Z" fill="white"/>
<path d="M202.021 188.952V186.015C194.76 186.015 188.868 180.128 188.868 172.862H185.93C185.93 180.122 180.044 186.015 172.777 186.015V188.952C180.038 188.952 185.93 194.839 185.93 202.105H188.868C188.868 194.845 194.755 188.952 202.021 188.952Z" fill="white"/>
<path d="M43.2437 241.88V238.942C35.9831 238.942 30.0905 233.056 30.0905 225.789H27.1531C27.1531 233.05 21.2665 238.942 14 238.942V241.88C21.2606 241.88 27.1531 247.766 27.1531 255.033H30.0905C30.0905 247.772 35.9772 241.88 43.2437 241.88Z" fill="white"/>
<path d="M96.1685 241.88V238.942C88.9079 238.942 83.0153 233.056 83.0153 225.789H80.0779C80.0779 233.05 74.1913 238.942 66.9248 238.942V241.88C74.1854 241.88 80.0779 247.766 80.0779 255.033H83.0153C83.0153 247.772 88.902 241.88 96.1685 241.88Z" fill="white"/>
<path d="M202.021 241.88V238.942C194.76 238.942 188.868 233.056 188.868 225.789H185.93C185.93 233.05 180.044 238.942 172.777 238.942V241.88C180.038 241.88 185.93 247.766 185.93 255.033H188.868C188.868 247.772 194.755 241.88 202.021 241.88Z" fill="white"/>
<path d="M96.1685 294.804V291.867C88.9079 291.867 83.0153 285.98 83.0153 278.714H80.0779C80.0779 285.974 74.1913 291.867 66.9248 291.867V294.804C74.1854 294.804 80.0779 300.691 80.0779 307.958H83.0153C83.0153 300.697 88.902 294.804 96.1685 294.804Z" fill="white"/>
<path d="M149.094 294.804V291.867C141.834 291.867 135.941 285.98 135.941 278.714H133.004C133.004 285.974 127.117 291.867 119.851 291.867V294.804C127.111 294.804 133.004 300.691 133.004 307.958H135.941C135.941 300.697 141.828 294.804 149.094 294.804Z" fill="white"/>
<path d="M255.223 30.176V27.2386C247.963 27.2386 242.07 21.3519 242.07 14.0854H239.133C239.133 21.346 233.246 27.2386 225.979 27.2386V30.176C233.24 30.176 239.133 36.0626 239.133 43.3291H242.07C242.07 36.0685 247.957 30.176 255.223 30.176Z" fill="white"/>
<path d="M301.761 29.5332V27.8789C297.672 27.8789 294.353 24.5636 294.353 20.4712H292.699C292.699 24.5603 289.383 27.8789 285.291 27.8789V29.5332C289.38 29.5332 292.699 32.8485 292.699 36.9409H294.353C294.353 32.8518 297.668 29.5332 301.761 29.5332Z" fill="white"/>
<path d="M407.347 29.5332V27.8789C403.258 27.8789 399.939 24.5636 399.939 20.4712H398.285C398.285 24.5603 394.969 27.8789 390.877 27.8789V29.5332C394.966 29.5332 398.285 32.8485 398.285 36.9409H399.939C399.939 32.8518 403.254 29.5332 407.347 29.5332Z" fill="white"/>
<path d="M248.946 82.1196V80.4653C244.857 80.4653 241.539 77.15 241.539 73.0576H239.884C239.884 77.1467 236.569 80.4653 232.477 80.4653V82.1196C236.566 82.1196 239.884 85.4349 239.884 89.5274H241.539C241.539 85.4383 244.854 82.1196 248.946 82.1196Z" fill="white"/>
<path d="M354.344 188.099V186.444C350.255 186.444 346.936 183.129 346.936 179.037H345.282C345.282 183.126 341.966 186.444 337.874 186.444V188.099C341.963 188.099 345.282 191.414 345.282 195.506H346.936C346.936 191.417 350.251 188.099 354.344 188.099Z" fill="white"/>
<path d="M407.63 294.076V292.422C403.541 292.422 400.222 289.107 400.222 285.014H398.568C398.568 289.103 395.253 292.422 391.16 292.422V294.076C395.249 294.076 398.568 297.392 398.568 301.484H400.222C400.222 297.395 403.537 294.076 407.63 294.076Z" fill="white"/>
<path d="M301.653 294.076V292.422C297.564 292.422 294.246 289.107 294.246 285.014H292.591C292.591 289.103 289.276 292.422 285.184 292.422V294.076C289.273 294.076 292.591 297.391 292.591 301.484H294.246C294.246 297.395 297.561 294.076 301.653 294.076Z" fill="white"/>
<path d="M301.653 135.997V134.343C297.564 134.343 294.246 131.027 294.246 126.935H292.591C292.591 131.024 289.276 134.343 285.184 134.343V135.997C289.273 135.997 292.591 139.312 292.591 143.405H294.246C294.246 139.316 297.561 135.997 301.653 135.997Z" fill="white"/>
<path d="M195.672 135.998V134.344C191.583 134.344 188.264 131.028 188.264 126.936H186.61C186.61 131.025 183.295 134.344 179.202 134.344V135.998C183.291 135.998 186.61 139.313 186.61 143.406H188.264C188.264 139.316 191.579 135.998 195.672 135.998Z" fill="white"/>
<path d="M248.959 241.384V239.729C244.87 239.729 241.551 236.414 241.551 232.322H239.897C239.897 236.411 236.582 239.729 232.489 239.729V241.384C236.578 241.384 239.897 244.699 239.897 248.792H241.551C241.551 244.702 244.867 241.384 248.959 241.384Z" fill="white"/>
<path d="M354.018 82.7114V81.0571C349.929 81.0571 346.61 77.7418 346.61 73.6494H344.956C344.956 77.7385 341.64 81.0571 337.548 81.0571V82.7114C341.637 82.7114 344.956 86.0267 344.956 90.1191H346.61C346.61 86.0301 349.925 82.7114 354.018 82.7114Z" fill="white"/>
<path d="M407.63 241.384V239.729C403.541 239.729 400.222 236.414 400.222 232.322H398.568C398.568 236.411 395.253 239.729 391.16 239.729V241.384C395.249 241.384 398.568 244.699 398.568 248.791H400.222C400.222 244.702 403.537 241.384 407.63 241.384Z" fill="white"/>
<path d="M361.072 30.1755V27.2381C353.811 27.2381 347.919 21.3515 347.919 14.085H344.981C344.981 21.3455 339.095 27.2381 331.828 27.2381V30.1755C339.089 30.1755 344.981 36.0621 344.981 43.3286H347.919C347.919 36.068 353.805 30.1755 361.072 30.1755Z" fill="white"/>
<path d="M308.184 83.1005V80.1631C300.924 80.1631 295.031 74.2765 295.031 67.01H292.094C292.094 74.2706 286.207 80.1631 278.94 80.1631V83.1005C286.201 83.1005 292.094 88.9872 292.094 96.2537H295.031C295.031 88.9931 300.918 83.1005 308.184 83.1005Z" fill="white"/>
<path d="M413.783 83.1003V80.1629C406.522 80.1629 400.63 74.2763 400.63 67.0098H397.692C397.692 74.2703 391.806 80.1629 384.539 80.1629V83.1003C391.8 83.1003 397.692 88.9869 397.692 96.2534H400.63C400.63 88.9929 406.516 83.1003 413.783 83.1003Z" fill="white"/>
<path d="M255.223 136.028V133.091C247.963 133.091 242.07 127.204 242.07 119.938H239.133C239.133 127.198 233.246 133.091 225.979 133.091V136.028C233.24 136.028 239.133 141.915 239.133 149.181H242.07C242.07 141.921 247.957 136.028 255.223 136.028Z" fill="white"/>
<path d="M361.072 136.027V133.09C353.811 133.09 347.919 127.203 347.919 119.937H344.981C344.981 127.197 339.095 133.09 331.828 133.09V136.027C339.089 136.027 344.981 141.914 344.981 149.18H347.919C347.919 141.92 353.805 136.027 361.072 136.027Z" fill="white"/>
<path d="M414.001 136.028V133.09C406.74 133.09 400.847 127.204 400.847 119.937H397.91C397.91 127.198 392.023 133.09 384.757 133.09V136.028C392.017 136.028 397.91 141.914 397.91 149.181H400.847C400.847 141.92 406.734 136.028 414.001 136.028Z" fill="white"/>
<path d="M255.223 188.952V186.015C247.963 186.015 242.07 180.128 242.07 172.862H239.133C239.133 180.122 233.246 186.015 225.979 186.015V188.952C233.24 188.952 239.133 194.839 239.133 202.105H242.07C242.07 194.845 247.957 188.952 255.223 188.952Z" fill="white"/>
<path d="M308.147 188.952V186.015C300.886 186.015 294.994 180.128 294.994 172.862H292.056C292.056 180.122 286.17 186.015 278.903 186.015V188.952C286.164 188.952 292.056 194.839 292.056 202.105H294.994C294.994 194.845 300.88 188.952 308.147 188.952Z" fill="white"/>
<path d="M414.001 188.952V186.015C406.74 186.015 400.847 180.128 400.847 172.862H397.91C397.91 180.122 392.023 186.015 384.757 186.015V188.952C392.017 188.952 397.91 194.839 397.91 202.105H400.847C400.847 194.845 406.734 188.952 414.001 188.952Z" fill="white"/>
<path d="M308.147 241.88V238.942C300.886 238.942 294.994 233.056 294.994 225.789H292.056C292.056 233.05 286.17 238.942 278.903 238.942V241.88C286.164 241.88 292.056 247.766 292.056 255.033H294.994C294.994 247.772 300.88 241.88 308.147 241.88Z" fill="white"/>
<path d="M361.072 241.88V238.942C353.811 238.942 347.919 233.056 347.919 225.789H344.981C344.981 233.05 339.095 238.942 331.828 238.942V241.88C339.089 241.88 344.981 247.766 344.981 255.033H347.919C347.919 247.772 353.805 241.88 361.072 241.88Z" fill="white"/>
<path d="M255.223 294.804V291.867C247.963 291.867 242.07 285.98 242.07 278.714H239.133C239.133 285.974 233.246 291.867 225.979 291.867V294.804C233.24 294.804 239.133 300.691 239.133 307.958H242.07C242.07 300.697 247.957 294.804 255.223 294.804Z" fill="white"/>
<path d="M361.072 294.804V291.867C353.811 291.867 347.919 285.98 347.919 278.714H344.981C344.981 285.974 339.095 291.867 331.828 291.867V294.804C339.089 294.804 344.981 300.691 344.981 307.958H347.919C347.919 300.697 353.805 294.804 361.072 294.804Z" fill="white"/>
</g>
<defs>
<filter id="filter0_d_1575_16622" x="0" y="0.0849609" width="428.001" height="321.873" filterUnits="userSpaceOnUse" color-interpolation-filters="sRGB">
<feFlood flood-opacity="0" result="BackgroundImageFix"/>
<feColorMatrix in="SourceAlpha" type="matrix" values="0 0 0 0 0 0 0 0 0 0 0 0 0 0 0 0 0 0 127 0" result="hardAlpha"/>
<feOffset/>
<feGaussianBlur stdDeviation="7"/>
<feComposite in2="hardAlpha" operator="out"/>
<feColorMatrix type="matrix" values="0 0 0 0 1 0 0 0 0 1 0 0 0 0 1 0 0 0 0.55 0"/>
<feBlend mode="normal" in2="BackgroundImageFix" result="effect1_dropShadow_1575_16622"/>
<feBlend mode="normal" in="SourceGraphic" in2="effect1_dropShadow_1575_16622" result="shape"/>
</filter>
</defs>
</svg>
